<svg width="639" height="274" viewBox="0 0 639 274" fill="none" xmlns="http://www.w3.org/2000/svg">
<path d="M243.463 138.813L244.222 141.716L243.463 138.813ZM613.217 272.978C614.309 274.224 616.204 274.348 617.45 273.256L637.752 255.456C638.998 254.364 639.122 252.468 638.03 251.222C636.938 249.977 635.042 249.852 633.797 250.944L615.75 266.766L599.928 248.72C598.836 247.475 596.941 247.35 595.695 248.442C594.449 249.535 594.325 251.43 595.417 252.676L613.217 272.978ZM1.54116 0.486235C1.31172 1.80621 1.10756 3.14007 0.928913 4.48657L6.87679 5.27571C7.045 4.00786 7.23703 2.75349 7.45252 1.51377L1.54116 0.486235ZM0.171995 12.5788C0.0237046 15.2478 -0.0291484 17.955 0.0151927 20.6919L6.01441 20.5947C5.97235 17.999 6.02254 15.4352 6.16276 12.9116L0.171995 12.5788ZM0.424701 28.7854C0.650027 31.4479 0.965707 34.1302 1.37339 36.8249L7.30588 35.9274C6.91775 33.3619 6.61751 30.8102 6.40333 28.2794L0.424701 28.7854ZM2.83944 44.7798C3.40723 47.3908 4.0619 50.0069 4.805 52.6212L10.5764 50.9808C9.86769 48.4875 9.24356 45.9933 8.70242 43.5048L2.83944 44.7798ZM7.25495 60.3218C8.14378 62.8422 9.11691 65.3551 10.1758 67.8542L15.7004 65.5135C14.6899 63.1287 13.7614 60.731 12.9134 58.3263L7.25495 60.3218ZM13.5546 75.1912C14.7466 77.5831 16.0206 79.9565 17.378 82.3058L22.5732 79.3042C21.2779 77.0623 20.0621 74.7975 18.9246 72.515L13.5546 75.1912ZM21.6318 89.1711C23.1079 91.3973 24.6636 93.5956 26.2999 95.761L31.0868 92.1437C29.5254 90.0774 28.0409 87.9796 26.6324 85.8553L21.6318 89.1711ZM31.3642 102.051C33.1009 104.077 34.914 106.068 36.8046 108.018L41.1128 103.842C39.308 101.98 37.5773 100.08 35.9198 98.1463L31.3642 102.051ZM42.5992 113.643C44.568 115.442 46.6095 117.199 48.7246 118.91L52.4983 114.245C50.4768 112.61 48.5264 110.931 46.646 109.214L42.5992 113.643ZM55.1571 123.806C57.3205 125.354 59.5518 126.856 61.852 128.309L65.0563 123.236C62.8537 121.845 60.7182 120.407 58.6488 118.926L55.1571 123.806ZM68.7703 132.411C71.0866 133.699 73.4657 134.938 75.9081 136.127L78.5338 130.732C76.1888 129.591 73.9062 128.401 71.6853 127.167L68.7703 132.411ZM83.246 139.461C85.6951 140.498 88.2024 141.485 90.7683 142.421L92.8237 136.784C90.3523 135.883 87.9395 134.932 85.5844 133.936L83.246 139.461ZM98.3453 144.977C100.863 145.76 103.433 146.496 106.056 147.181L107.572 141.376C105.038 140.714 102.557 140.004 100.127 139.248L98.3453 144.977ZM113.899 149.044C116.469 149.596 119.087 150.101 121.752 150.558L122.766 144.644C120.182 144.201 117.646 143.712 115.158 143.178L113.899 149.044ZM129.654 151.752C132.283 152.096 134.955 152.396 137.671 152.648L138.226 146.674C135.584 146.428 132.987 146.137 130.434 145.803L129.654 151.752ZM145.589 153.242C148.218 153.393 150.885 153.501 153.591 153.565L153.734 147.567C151.094 147.504 148.494 147.399 145.934 147.252L145.589 153.242ZM161.589 153.628C164.205 153.607 166.856 153.546 169.541 153.444L169.314 147.448C166.687 147.548 164.096 147.607 161.541 147.628L161.589 153.628ZM177.565 153.024C180.162 152.851 182.79 152.64 185.45 152.391L184.892 146.418C182.284 146.661 179.709 146.867 177.166 147.037L177.565 153.024ZM193.455 151.538C196.032 151.23 198.637 150.887 201.27 150.509L200.416 144.57C197.829 144.942 195.272 145.279 192.743 145.581L193.455 151.538ZM209.219 149.271C211.777 148.842 214.362 148.381 216.972 147.885L215.854 141.99C213.285 142.478 210.743 142.932 208.227 143.353L209.219 149.271ZM224.834 146.308C227.38 145.77 229.949 145.2 232.544 144.599L231.188 138.754C228.632 139.347 226.1 139.908 223.593 140.438L224.834 146.308ZM240.294 142.724C241.597 142.396 242.907 142.06 244.222 141.716L242.704 135.911C241.406 136.251 240.115 136.582 238.829 136.906L240.294 142.724ZM244.222 141.716C245.488 141.385 246.756 141.055 248.025 140.728L246.527 134.918C245.251 135.247 243.977 135.578 242.704 135.911L244.222 141.716ZM255.659 138.787C258.205 138.149 260.757 137.519 263.314 136.898L261.897 131.068C259.326 131.692 256.761 132.326 254.201 132.967L255.659 138.787ZM270.972 135.066C273.528 134.464 276.088 133.872 278.652 133.289L277.321 127.438C274.743 128.025 272.168 128.621 269.598 129.226L270.972 135.066ZM286.337 131.571C288.902 131.009 291.469 130.456 294.037 129.914L292.798 124.043C290.213 124.589 287.631 125.145 285.051 125.711L286.337 131.571ZM301.752 128.317C304.325 127.796 306.899 127.286 309.473 126.787L308.331 120.896C305.74 121.399 303.15 121.912 300.561 122.437L301.752 128.317ZM317.215 125.32C319.798 124.843 322.379 124.378 324.959 123.925L323.922 118.015C321.324 118.471 318.725 118.94 316.125 119.42L317.215 125.32ZM332.724 122.599C335.316 122.169 337.906 121.753 340.493 121.349L339.569 115.421C336.963 115.827 334.353 116.247 331.743 116.68L332.724 122.599ZM348.276 120.176C350.878 119.797 353.477 119.433 356.071 119.083L355.27 113.137C352.654 113.49 350.035 113.857 347.412 114.239L348.276 120.176ZM363.868 118.076C366.48 117.753 369.088 117.446 371.689 117.155L371.021 111.192C368.397 111.486 365.767 111.796 363.132 112.121L363.868 118.076ZM379.495 116.328C382.117 116.067 384.733 115.822 387.34 115.595L386.82 109.618C384.187 109.847 381.547 110.094 378.899 110.358L379.495 116.328ZM395.152 114.968C397.784 114.774 400.406 114.599 403.018 114.443L402.662 108.454C400.021 108.611 397.371 108.788 394.712 108.984L395.152 114.968ZM410.833 114.035C413.472 113.917 416.099 113.819 418.714 113.743L418.538 107.745C415.892 107.822 413.234 107.921 410.564 108.041L410.833 114.035ZM426.527 113.578C429.17 113.544 431.798 113.533 434.411 113.546L434.44 107.546C431.791 107.533 429.127 107.544 426.45 107.579L426.527 113.578ZM442.219 113.654C444.86 113.716 447.485 113.803 450.092 113.915L450.351 107.921C447.703 107.806 445.039 107.718 442.358 107.656L442.219 113.654ZM457.885 114.332C460.52 114.502 463.134 114.699 465.727 114.924L466.247 108.947C463.607 108.717 460.948 108.517 458.27 108.345L457.885 114.332ZM473.493 115.693C476.111 115.985 478.705 116.307 481.274 116.661L482.093 110.717C479.471 110.356 476.825 110.027 474.157 109.73L473.493 115.693ZM488.994 117.833C491.582 118.264 494.143 118.729 496.674 119.228L497.836 113.342C495.244 112.83 492.624 112.355 489.979 111.915L488.994 117.833ZM504.316 120.865C506.858 121.453 509.368 122.08 511.844 122.745L513.4 116.95C510.855 116.266 508.277 115.623 505.669 115.02L504.316 120.865ZM519.358 124.916C521.848 125.688 524.3 126.502 526.713 127.36L528.723 121.706C526.23 120.82 523.701 119.98 521.135 119.185L519.358 124.916ZM533.983 130.126C536.4 131.108 538.772 132.138 541.099 133.217L543.623 127.774C541.207 126.654 538.746 125.585 536.243 124.568L533.983 130.126ZM548.011 136.639C550.315 137.855 552.569 139.125 554.77 140.448L557.862 135.306C555.563 133.924 553.212 132.6 550.812 131.332L548.011 136.639ZM561.259 144.614C563.388 146.072 565.46 147.588 567.475 149.162L571.169 144.434C569.053 142.781 566.88 141.191 564.65 139.664L561.259 144.614ZM573.388 154.101C575.301 155.809 577.153 157.579 578.943 159.411L583.235 155.219C581.349 153.288 579.398 151.424 577.385 149.626L573.388 154.101ZM584.123 165.098C585.772 167.04 587.357 169.045 588.878 171.116L593.713 167.564C592.109 165.38 590.436 163.264 588.697 161.215L584.123 165.098ZM593.21 177.471C594.567 179.62 595.861 181.833 597.09 184.112L602.371 181.265C601.078 178.865 599.714 176.533 598.283 174.267L593.21 177.471ZM600.502 190.98C601.561 193.302 602.559 195.686 603.491 198.135L609.098 195.999C608.12 193.432 607.074 190.929 605.96 188.489L600.502 190.98ZM606.001 205.372C606.762 207.797 607.464 210.279 608.105 212.821L613.923 211.352C613.254 208.702 612.521 206.111 611.725 203.576L606.001 205.372ZM609.798 220.371C610.287 222.856 610.723 225.393 611.102 227.985L617.039 227.115C616.645 224.429 616.194 221.794 615.685 219.211L609.798 220.371ZM612.054 235.725C612.306 238.243 612.509 240.808 612.661 243.421L618.651 243.073C618.494 240.378 618.285 237.73 618.024 235.127L612.054 235.725ZM612.961 251.244C613.01 253.781 613.013 256.362 612.97 258.985L618.969 259.084C619.013 256.391 619.01 253.74 618.96 251.13L612.961 251.244ZM612.71 266.801C612.644 268.125 612.567 269.459 612.479 270.803L618.466 271.197C618.556 269.82 618.635 268.455 618.702 267.099L612.71 266.801Z" fill="#219653"/>
</svg>
