<svg width="622" height="272" viewBox="0 0 622 272" fill="none" xmlns="http://www.w3.org/2000/svg">
<path d="M241.463 138.813L241.716 139.781L241.463 138.813ZM612.721 271.659C613.085 272.075 613.716 272.116 614.132 271.752L620.899 265.819C621.314 265.455 621.356 264.823 620.992 264.407C620.628 263.992 619.996 263.951 619.58 264.315L613.565 269.589L608.291 263.573C607.927 263.158 607.295 263.117 606.88 263.481C606.465 263.845 606.423 264.477 606.787 264.892L612.721 271.659ZM1.51161 0.828745C1.28682 2.12197 1.08671 3.42934 0.911539 4.74962L2.89417 5.01266C3.06586 3.7186 3.26192 2.43773 3.48207 1.17126L1.51161 0.828745ZM0.168915 12.6897C0.0233179 15.3102 -0.0286485 17.9697 0.0149302 20.6595L2.01467 20.6271C1.97185 17.9843 2.02293 15.3727 2.16584 12.8007L0.168915 12.6897ZM0.417577 28.6168C0.639187 31.2353 0.949722 33.8741 1.35089 36.5258L3.32839 36.2266C2.93374 33.618 2.62835 31.0227 2.41045 28.4481L0.417577 28.6168ZM2.79377 44.3548C3.35267 46.925 3.99717 49.5004 4.7288 52.0744L6.65259 51.5276C5.93243 48.9939 5.29812 46.4591 4.7481 43.9298L2.79377 44.3548ZM7.1411 59.6567C8.01632 62.1385 8.97459 64.6129 10.0173 67.074L11.8588 66.2937C10.8323 63.8708 9.88887 61.4348 9.02725 58.9915L7.1411 59.6567ZM13.3446 74.2991C14.5184 76.6546 15.7731 78.9918 17.1097 81.3053L18.8415 80.3047C17.5255 78.027 16.2903 75.726 15.1346 73.407L13.3446 74.2991ZM21.2987 88.0658C22.7523 90.2581 24.2842 92.4229 25.8955 94.5553L27.4912 93.3495C25.9048 91.2501 24.3966 89.1188 22.9655 86.9606L21.2987 88.0658ZM30.8827 100.749C32.593 102.745 34.3787 104.705 36.2407 106.626L37.6768 105.234C35.8433 103.343 34.0852 101.413 32.4013 99.4479L30.8827 100.749ZM41.9481 112.167C43.8875 113.938 45.8986 115.669 47.9825 117.355L49.2404 115.8C47.1877 114.14 45.2069 112.435 43.297 110.69L41.9481 112.167ZM54.321 122.179C56.453 123.705 58.6525 125.186 60.9201 126.618L61.9882 124.927C59.7531 123.515 57.5856 122.056 55.4849 120.553L54.321 122.179ZM67.742 130.663C70.0265 131.933 72.3734 133.156 74.7834 134.329L75.6586 132.53C73.2811 131.373 70.9663 130.167 68.7137 128.915L67.742 130.663ZM82.0254 137.619C84.4433 138.643 86.9191 139.618 89.4534 140.542L90.1386 138.663C87.6357 137.75 85.1914 136.787 82.8049 135.777L82.0254 137.619ZM96.9393 143.067C99.4277 143.841 101.968 144.568 104.562 145.246L105.067 143.311C102.503 142.641 99.9921 141.923 97.5333 141.158L96.9393 143.067ZM112.319 147.089C114.862 147.635 117.452 148.135 120.09 148.587L120.428 146.616C117.817 146.168 115.254 145.673 112.738 145.133L112.319 147.089ZM127.914 149.769C130.518 150.11 133.165 150.407 135.856 150.656L136.041 148.665C133.375 148.417 130.752 148.124 128.174 147.786L127.914 149.769ZM143.704 151.245C146.31 151.395 148.955 151.502 151.639 151.566L151.687 149.567C149.024 149.503 146.402 149.397 143.819 149.248L143.704 151.245ZM159.573 151.628C162.169 151.607 164.799 151.546 167.466 151.445L167.39 149.447C164.743 149.547 162.132 149.607 159.557 149.628L159.573 151.628ZM175.432 151.028C178.011 150.856 180.622 150.647 183.264 150.4L183.078 148.409C180.453 148.654 177.86 148.862 175.299 149.032L175.432 151.028ZM191.218 149.552C193.778 149.246 196.367 148.906 198.985 148.529L198.701 146.549C196.098 146.924 193.525 147.262 190.981 147.567L191.218 149.552ZM206.888 147.298C209.432 146.872 212.003 146.413 214.599 145.92L214.227 143.955C211.644 144.445 209.087 144.902 206.558 145.326L206.888 147.298ZM222.42 144.351C224.953 143.816 227.51 143.249 230.092 142.65L229.64 140.702C227.071 141.298 224.526 141.862 222.006 142.394L222.42 144.351ZM237.806 140.785C239.103 140.458 240.407 140.123 241.716 139.781L241.21 137.846C239.907 138.187 238.609 138.52 237.317 138.845L237.806 140.785ZM241.716 139.781C242.984 139.449 244.254 139.119 245.526 138.791L245.026 136.855C243.753 137.183 242.481 137.514 241.21 137.846L241.716 139.781ZM253.173 136.847C255.724 136.208 258.28 135.577 260.842 134.954L260.369 133.011C257.803 133.635 255.242 134.267 252.687 134.907L253.173 136.847ZM268.514 133.119C271.075 132.516 273.64 131.923 276.208 131.338L275.765 129.388C273.191 129.974 270.622 130.568 268.056 131.172L268.514 133.119ZM283.909 129.618C286.478 129.054 289.05 128.5 291.624 127.957L291.211 126C288.632 126.544 286.055 127.099 283.48 127.664L283.909 129.618ZM299.355 126.357C301.933 125.835 304.513 125.323 307.093 124.823L306.712 122.86C304.127 123.361 301.542 123.874 298.958 124.397L299.355 126.357ZM314.852 123.354C317.44 122.875 320.027 122.409 322.614 121.955L322.268 119.985C319.676 120.44 317.082 120.908 314.488 121.387L314.852 123.354ZM330.397 120.626C332.995 120.195 335.592 119.778 338.185 119.373L337.877 117.397C335.277 117.802 332.674 118.221 330.07 118.653L330.397 120.626ZM345.988 118.197C348.597 117.817 351.203 117.452 353.804 117.101L353.537 115.119C350.929 115.471 348.316 115.837 345.7 116.218L345.988 118.197ZM361.622 116.091C364.242 115.767 366.857 115.459 369.466 115.167L369.244 113.18C366.627 113.472 364.005 113.781 361.377 114.106L361.622 116.091ZM377.296 114.338C379.927 114.076 382.551 113.83 385.167 113.603L384.994 111.611C382.369 111.839 379.737 112.085 377.098 112.348L377.296 114.338ZM393.005 112.973C395.646 112.779 398.278 112.603 400.899 112.447L400.781 110.45C398.149 110.607 395.508 110.783 392.859 110.978L393.005 112.973ZM408.744 112.037C411.392 111.918 414.03 111.82 416.655 111.743L416.597 109.744C413.961 109.821 411.313 109.92 408.654 110.039L408.744 112.037ZM424.502 111.578C427.155 111.544 429.796 111.533 432.421 111.546L432.431 109.546C429.793 109.533 427.141 109.544 424.476 109.578L424.502 111.578ZM440.265 111.655C442.92 111.717 445.558 111.804 448.178 111.917L448.264 109.919C445.63 109.805 442.979 109.718 440.312 109.656L440.265 111.655ZM456.013 112.337C458.662 112.507 461.292 112.705 463.9 112.932L464.073 110.939C461.449 110.711 458.805 110.512 456.142 110.341L456.013 112.337ZM471.715 113.706C474.349 113.999 476.96 114.323 479.547 114.68L479.82 112.699C477.215 112.34 474.587 112.013 471.936 111.718L471.715 113.706ZM487.322 115.861C489.93 116.294 492.51 116.763 495.061 117.266L495.449 115.304C492.877 114.796 490.277 114.325 487.65 113.888L487.322 115.861ZM502.767 118.916C505.331 119.51 507.864 120.142 510.363 120.813L510.882 118.882C508.359 118.204 505.804 117.567 503.218 116.968L502.767 118.916ZM517.95 123.006C520.466 123.785 522.944 124.608 525.383 125.475L526.053 123.591C523.587 122.714 521.083 121.883 518.543 121.095L517.95 123.006ZM532.737 128.273C535.182 129.267 537.584 130.31 539.94 131.403L540.781 129.588C538.395 128.482 535.964 127.426 533.49 126.42L532.737 128.273ZM546.944 134.87C549.281 136.103 551.567 137.391 553.8 138.734L554.831 137.02C552.565 135.657 550.246 134.351 547.878 133.101L546.944 134.87ZM560.389 142.964C562.552 144.445 564.658 145.985 566.706 147.586L567.938 146.01C565.856 144.383 563.716 142.818 561.52 141.314L560.389 142.964ZM572.72 152.609C574.667 154.348 576.552 156.149 578.374 158.014L579.805 156.616C577.951 154.718 576.032 152.886 574.053 151.117L572.72 152.609ZM583.648 163.803C585.327 165.781 586.941 167.823 588.49 169.932L590.102 168.748C588.525 166.602 586.882 164.523 585.173 162.509L583.648 163.803ZM592.901 176.403C594.283 178.591 595.6 180.844 596.85 183.163L598.611 182.214C597.339 179.855 595.998 177.562 594.592 175.335L592.901 176.403ZM600.321 190.15C601.399 192.511 602.412 194.935 603.36 197.423L605.229 196.711C604.266 194.183 603.236 191.72 602.141 189.319L600.321 190.15ZM605.909 204.774C606.681 207.235 607.394 209.754 608.045 212.331L609.984 211.842C609.324 209.228 608.601 206.673 607.817 204.175L605.909 204.774ZM609.76 219.984C610.256 222.502 610.697 225.072 611.081 227.695L613.06 227.405C612.671 224.75 612.225 222.148 611.723 219.598L609.76 219.984ZM612.044 235.526C612.299 238.072 612.504 240.665 612.658 243.305L614.654 243.189C614.499 240.521 614.292 237.901 614.034 235.327L612.044 235.526ZM612.961 251.206C613.01 253.768 613.013 256.371 612.969 259.018L614.969 259.051C615.013 256.381 615.01 253.754 614.961 251.168L612.961 251.206ZM612.707 266.9C612.641 268.235 612.564 269.579 612.475 270.934L614.47 271.066C614.56 269.7 614.638 268.345 614.705 267L612.707 266.9Z" fill="#A6A6A6"/>
</svg>
